<!-- Investment Calculator Logo -->
<svg
  width="240"
  height="64"
  viewBox="0 0 480 128"
  xmlns="http://www.w3.org/2000/svg"
  role="img"
  aria-labelledby="title desc"
>
  <title id="title">InvestCalc Logo</title>
  <desc id="desc">A calculator with an upward arrow indicating investment growth, next to the word InvestCalc.</desc>

  <!-- ====== Themeable colors via CSS variables ====== -->
  <style>
    :root {
      --brand-primary: #2563eb; /* Blue */
      --brand-accent:  #10b981; /* Green */
      --ink:           #d1d5dc; /* Slate-900 */
      --muted:         #e2e8f0; /* Slate-200 */
      --bg:            #ffffff;
    }
    .brand    { fill: var(--brand-primary); }
    .accent   { fill: var(--brand-accent); }
    .ink      { fill: var(--ink); }
    .muted    { fill: var(--muted); }
    .stroke   { stroke: var(--brand-primary); }
  </style>

  <!-- ====== Calculator Badge ====== -->
  <g transform="translate(16,16)">
    <!-- Body -->
    <rect x="0" y="0" rx="12" ry="12" width="96" height="96" fill="url(#gradBody)"/>
    <!-- Screen -->
    <rect x="12" y="12" rx="6" ry="6" width="72" height="24" class="muted"/>
    <!-- Keys (4x2) -->
    <g transform="translate(12,46)" fill="#fff">
      <rect x="0"  y="0"  width="16" height="16" rx="4"/>
      <rect x="20" y="0"  width="16" height="16" rx="4"/>
      <rect x="40" y="0"  width="16" height="16" rx="4"/>
      <rect x="60" y="0"  width="16" height="16" rx="4"/>

      <rect x="0"  y="20" width="16" height="16" rx="4"/>
      <rect x="20" y="20" width="16" height="16" rx="4"/>
      <rect x="40" y="20" width="16" height="16" rx="4"/>
      <rect x="60" y="20" width="16" height="16" rx="4"/>
    </g>

    <!-- Upward Trend Arrow overlay -->
    <g transform="translate(-4,-4)">
      <path d="M20 88 L50 60 L66 72 L92 44" fill="none" stroke="white" stroke-width="6" stroke-linecap="round" stroke-linejoin="round"/>
      <polygon points="92,44 84,44 92,36" fill="white"/>
    </g>
  </g>

  <!-- ====== Wordmark ====== -->
  <g transform="translate(136,28)">
    <!-- Sparkline accent -->
    <path d="M0 52 L28 36 L44 44 L66 28" fill="none" stroke="var(--brand-accent)" stroke-width="6" stroke-linecap="round" stroke-linejoin="round"/>

    <!-- Text -->
    <text x="0" y="32"
      font-family="Inter, ui-sans-serif, system-ui, -apple-system, Segoe UI, Roboto, Helvetica, Arial"
      font-weight="800"
      font-size="36"
      class="ink">
      InVest<tspan class="brand">Me</tspan>
    </text>

    <!-- Tagline (optional) -->
    <!-- <text x="0" y="60"
      font-family="Inter, ui-sans-serif, system-ui"
      font-size="14"
      fill="#64748b">
      plan • project • grow
    </text> -->
  </g>

  <!-- ====== Gradients ====== -->
  <defs>
    <linearGradient id="gradBody" x1="0" y1="0" x2="1" y2="1">
      <stop offset="0%"  stop-color="var(--brand-primary)" />
      <stop offset="100%" stop-color="#1d4ed8" />
    </linearGradient>
  </defs>
</svg>
